<svg id="visual" viewBox="0 0 900 600" width="900" height="600" xmlns="http://www.w3.org/2000/svg" xmlns:xlink="http://www.w3.org/1999/xlink" version="1.1"><rect x="0" y="0" width="900" height="600" fill="#001220"></rect><path d="M0 410L12.5 413C25 416 50 422 75 430.7C100 439.3 125 450.7 150 448.3C175 446 200 430 225 430.8C250 431.7 275 449.3 300 458.7C325 468 350 469 375 467.5C400 466 425 462 450 462.3C475 462.7 500 467.3 525 461.8C550 456.3 575 440.7 600 430.7C625 420.7 650 416.3 675 417.5C700 418.7 725 425.3 750 435.3C775 445.3 800 458.7 825 461.8C850 465 875 458 887.5 454.5L900 451L900 601L887.5 601C875 601 850 601 825 601C800 601 775 601 750 601C725 601 700 601 675 601C650 601 625 601 600 601C575 601 550 601 525 601C500 601 475 601 450 601C425 601 400 601 375 601C350 601 325 601 300 601C275 601 250 601 225 601C200 601 175 601 150 601C125 601 100 601 75 601C50 601 25 601 12.5 601L0 601Z" fill="#c62368"></path><path d="M0 498L12.5 487.5C25 477 50 456 75 454.8C100 453.7 125 472.3 150 477.2C175 482 200 473 225 466.2C250 459.3 275 454.7 300 449.7C325 444.7 350 439.3 375 443.7C400 448 425 462 450 465.2C475 468.3 500 460.7 525 460.7C550 460.7 575 468.3 600 474.3C625 480.3 650 484.7 675 481.2C700 477.7 725 466.3 750 465C775 463.7 800 472.3 825 475C850 477.7 875 474.3 887.5 472.7L900 471L900 601L887.5 601C875 601 850 601 825 601C800 601 775 601 750 601C725 601 700 601 675 601C650 601 625 601 600 601C575 601 550 601 525 601C500 601 475 601 450 601C425 601 400 601 375 601C350 601 325 601 300 601C275 601 250 601 225 601C200 601 175 601 150 601C125 601 100 601 75 601C50 601 25 601 12.5 601L0 601Z" fill="#d53867"></path><path d="M0 500L12.5 500.3C25 500.7 50 501.3 75 503.2C100 505 125 508 150 506C175 504 200 497 225 495.7C250 494.3 275 498.7 300 500.2C325 501.7 350 500.3 375 495.2C400 490 425 481 450 484.7C475 488.3 500 504.7 525 511.8C550 519 575 517 600 511.8C625 506.7 650 498.3 675 493.2C700 488 725 486 750 491.3C775 496.7 800 509.3 825 511.7C850 514 875 506 887.5 502L900 498L900 601L887.5 601C875 601 850 601 825 601C800 601 775 601 750 601C725 601 700 601 675 601C650 601 625 601 600 601C575 601 550 601 525 601C500 601 475 601 450 601C425 601 400 601 375 601C350 601 325 601 300 601C275 601 250 601 225 601C200 601 175 601 150 601C125 601 100 601 75 601C50 601 25 601 12.5 601L0 601Z" fill="#e34c67"></path><path d="M0 520L12.5 522.7C25 525.3 50 530.7 75 535.3C100 540 125 544 150 541.7C175 539.3 200 530.7 225 530.5C250 530.3 275 538.7 300 538.8C325 539 350 531 375 529C400 527 425 531 450 534.2C475 537.3 500 539.7 525 542.7C550 545.7 575 549.3 600 547.8C625 546.3 650 539.7 675 536.2C700 532.7 725 532.3 750 532C775 531.7 800 531.3 825 531.7C850 532 875 533 887.5 533.5L900 534L900 601L887.5 601C875 601 850 601 825 601C800 601 775 601 750 601C725 601 700 601 675 601C650 601 625 601 600 601C575 601 550 601 525 601C500 601 475 601 450 601C425 601 400 601 375 601C350 601 325 601 300 601C275 601 250 601 225 601C200 601 175 601 150 601C125 601 100 601 75 601C50 601 25 601 12.5 601L0 601Z" fill="#ef5f67"></path><path d="M0 554L12.5 553C25 552 50 550 75 547.8C100 545.7 125 543.3 150 541.8C175 540.3 200 539.7 225 541.7C250 543.7 275 548.3 300 554.2C325 560 350 567 375 567.8C400 568.7 425 563.3 450 563.5C475 563.7 500 569.3 525 568.8C550 568.3 575 561.7 600 557C625 552.3 650 549.7 675 547.7C700 545.7 725 544.3 750 544.8C775 545.3 800 547.7 825 552C850 556.3 875 562.7 887.5 565.8L900 569L900 601L887.5 601C875 601 850 601 825 601C800 601 775 601 750 601C725 601 700 601 675 601C650 601 625 601 600 601C575 601 550 601 525 601C500 601 475 601 450 601C425 601 400 601 375 601C350 601 325 601 300 601C275 601 250 601 225 601C200 601 175 601 150 601C125 601 100 601 75 601C50 601 25 601 12.5 601L0 601Z" fill="#fa7268"></path></svg>